<svg width="61" height="61" viewBox="0 0 61 61" fill="none" xmlns="http://www.w3.org/2000/svg">
<path d="M30.5 60.7821C47.0685 60.7821 60.5 47.3506 60.5 30.7821C60.5 14.2136 47.0685 0.782104 30.5 0.782104C13.9315 0.782104 0.5 14.2136 0.5 30.7821C0.5 47.3506 13.9315 60.7821 30.5 60.7821Z" fill="#607D8B"/>
<path d="M40.9707 18.8173H20.0293C17.5508 18.8173 15.541 20.827 15.541 23.3055V38.2645C15.541 40.743 17.5508 42.7528 20.0293 42.7528H40.9707C43.4492 42.7528 45.459 40.743 45.459 38.2645V23.2997C45.459 20.8212 43.4492 18.8173 40.9707 18.8173ZM40.3613 21.8055L31.5605 30.6005C30.9805 31.1864 30.0313 31.1923 29.4453 30.6063L29.4395 30.6005L20.6387 21.8055H40.3613ZM42.4707 38.2645C42.4707 39.0907 41.8027 39.7587 40.9766 39.7587H20.0293C19.2031 39.7587 18.5352 39.0907 18.5352 38.2645V23.9149L27.3301 32.7098C29.082 34.4618 31.918 34.4618 33.6758 32.7098L42.4707 23.9149V38.2645Z" fill="white"/>
</svg>
