<svg width="61" height="61" viewBox="0 0 61 61" fill="none" xmlns="http://www.w3.org/2000/svg">
<path d="M30.5 60.8247C47.0685 60.8247 60.5 47.3932 60.5 30.8247C60.5 14.2561 47.0685 0.824677 30.5 0.824677C13.9315 0.824677 0.5 14.2561 0.5 30.8247C0.5 47.3932 13.9315 60.8247 30.5 60.8247Z" fill="#E4405F"/>
<path d="M30.5 15.8247C26.4277 15.8247 25.918 15.8423 24.3184 15.9126C22.7188 15.9887 21.6348 16.2407 20.6797 16.6098C19.6953 16.9907 18.8574 17.5063 18.0195 18.3383C17.1816 19.1704 16.6719 20.0083 16.291 20.9985C15.9219 21.9536 15.6699 23.0434 15.5938 24.6372C15.5176 26.2368 15.5059 26.7466 15.5059 30.8188C15.5059 34.8911 15.5234 35.4008 15.5938 37.0005C15.6699 38.5942 15.9219 39.6841 16.291 40.6391C16.6719 41.6235 17.1875 42.4614 18.0195 43.2993C18.8516 44.1313 19.6895 44.6469 20.6797 45.0278C21.6348 45.3969 22.7246 45.6489 24.3184 45.7251C25.918 45.8012 26.4277 45.813 30.5 45.813C34.5723 45.813 35.082 45.7954 36.6816 45.7251C38.2754 45.6489 39.3652 45.3969 40.3203 45.0278C41.3047 44.6469 42.1426 44.1313 42.9805 43.2993C43.8125 42.4673 44.3281 41.6294 44.709 40.6391C45.0781 39.6841 45.3301 38.5942 45.4063 37.0005C45.4824 35.4008 45.4941 34.8911 45.4941 30.8188C45.4941 26.7466 45.4766 26.2368 45.4063 24.6372C45.3301 23.0434 45.0781 21.9536 44.709 20.9985C44.3281 20.0141 43.8125 19.1762 42.9805 18.3383C42.1484 17.5063 41.3105 16.9907 40.3203 16.6098C39.3652 16.2407 38.2754 15.9887 36.6816 15.9126C35.082 15.8423 34.5723 15.8247 30.5 15.8247ZM30.5 18.5258C34.502 18.5258 34.9824 18.5434 36.5645 18.6137C38.0293 18.6841 38.8203 18.9243 39.3477 19.1352C40.0508 19.4048 40.5488 19.7329 41.0762 20.2544C41.5977 20.7817 41.9258 21.2798 42.1953 21.9829C42.4004 22.5102 42.6465 23.3012 42.7109 24.7661C42.7813 26.3481 42.7988 26.8227 42.7988 30.8305C42.7988 34.8383 42.7813 35.313 42.7051 36.895C42.6289 38.3598 42.3828 39.1508 42.1777 39.6782C41.8965 40.3813 41.5801 40.8794 41.0527 41.4067C40.5312 41.9282 40.0215 42.2563 39.3301 42.5258C38.8027 42.7309 38 42.977 36.5352 43.0415C34.9414 43.1118 34.4727 43.1294 30.459 43.1294C26.4453 43.1294 25.9766 43.1118 24.3828 43.0356C22.918 42.9594 22.1152 42.7133 21.5879 42.5083C20.8789 42.227 20.3867 41.9106 19.8652 41.3833C19.3379 40.8618 19.0039 40.352 18.7402 39.6606C18.5352 39.1333 18.2891 38.3305 18.2129 36.8657C18.1543 35.2895 18.1367 34.8032 18.1367 30.813C18.1367 26.8169 18.1543 26.3305 18.2129 24.7368C18.2891 23.2719 18.5293 22.4692 18.7402 21.9419C19.0039 21.227 19.3379 20.7407 19.8652 20.2133C20.3867 19.6919 20.8789 19.352 21.5879 19.0883C22.1152 18.8833 22.9004 18.6372 24.3652 18.561C25.959 18.5024 26.4277 18.4848 30.4414 18.4848L30.5 18.5258ZM30.5 23.1196C26.2461 23.1196 22.7949 26.5708 22.7949 30.8247C22.7949 35.0786 26.2461 38.5298 30.5 38.5298C34.7539 38.5298 38.2051 35.0786 38.2051 30.8247C38.2051 26.5708 34.7539 23.1196 30.5 23.1196ZM30.5 35.8227C27.7402 35.8227 25.502 33.5844 25.502 30.8247C25.502 28.0649 27.7402 25.8266 30.5 25.8266C33.2598 25.8266 35.498 28.0649 35.498 30.8247C35.498 33.5844 33.2598 35.8227 30.5 35.8227ZM40.3086 22.8208C40.3086 23.8169 39.5 24.6196 38.5098 24.6196C37.5137 24.6196 36.7109 23.811 36.7109 22.8208C36.7109 21.8305 37.5195 21.0219 38.5098 21.0219C39.5 21.0161 40.3086 21.8247 40.3086 22.8208Z" fill="white"/>
</svg>
