<svg width="61" height="61" viewBox="0 0 61 61" fill="none" xmlns="http://www.w3.org/2000/svg">
<path d="M30.5 60.7744C47.0685 60.7744 60.5 47.343 60.5 30.7744C60.5 14.2059 47.0685 0.774414 30.5 0.774414C13.9315 0.774414 0.5 14.2059 0.5 30.7744C0.5 47.343 13.9315 60.7744 30.5 60.7744Z" fill="#E4405F"/>
<path d="M30.5 15.7744C26.4277 15.7744 25.918 15.792 24.3184 15.8623C22.7188 15.9385 21.6348 16.1904 20.6797 16.5596C19.6953 16.9404 18.8574 17.4561 18.0195 18.2881C17.1816 19.1201 16.6719 19.958 16.291 20.9482C15.9219 21.9033 15.6699 22.9932 15.5938 24.5869C15.5176 26.1865 15.5059 26.6963 15.5059 30.7686C15.5059 34.8408 15.5234 35.3506 15.5938 36.9502C15.6699 38.5439 15.9219 39.6338 16.291 40.5889C16.6719 41.5732 17.1875 42.4111 18.0195 43.249C18.8516 44.0811 19.6895 44.5967 20.6797 44.9775C21.6348 45.3467 22.7246 45.5986 24.3184 45.6748C25.918 45.751 26.4277 45.7627 30.5 45.7627C34.5723 45.7627 35.082 45.7451 36.6816 45.6748C38.2754 45.5986 39.3652 45.3467 40.3203 44.9775C41.3047 44.5967 42.1426 44.0811 42.9805 43.249C43.8125 42.417 44.3281 41.5791 44.709 40.5889C45.0781 39.6338 45.3301 38.5439 45.4063 36.9502C45.4824 35.3506 45.4941 34.8408 45.4941 30.7686C45.4941 26.6963 45.4766 26.1865 45.4063 24.5869C45.3301 22.9932 45.0781 21.9033 44.709 20.9482C44.3281 19.9639 43.8125 19.126 42.9805 18.2881C42.1484 17.4561 41.3105 16.9404 40.3203 16.5596C39.3652 16.1904 38.2754 15.9385 36.6816 15.8623C35.082 15.792 34.5723 15.7744 30.5 15.7744ZM30.5 18.4756C34.502 18.4756 34.9824 18.4932 36.5645 18.5635C38.0293 18.6338 38.8203 18.874 39.3477 19.085C40.0508 19.3545 40.5488 19.6826 41.0762 20.2041C41.5977 20.7314 41.9258 21.2295 42.1953 21.9326C42.4004 22.46 42.6465 23.251 42.7109 24.7158C42.7813 26.2979 42.7988 26.7725 42.7988 30.7803C42.7988 34.7881 42.7813 35.2627 42.7051 36.8447C42.6289 38.3096 42.3828 39.1006 42.1777 39.6279C41.8965 40.3311 41.5801 40.8291 41.0527 41.3564C40.5312 41.8779 40.0215 42.2061 39.3301 42.4756C38.8027 42.6807 38 42.9268 36.5352 42.9912C34.9414 43.0615 34.4727 43.0791 30.459 43.0791C26.4453 43.0791 25.9766 43.0615 24.3828 42.9854C22.918 42.9092 22.1152 42.6631 21.5879 42.458C20.8789 42.1768 20.3867 41.8604 19.8652 41.333C19.3379 40.8115 19.0039 40.3018 18.7402 39.6104C18.5352 39.083 18.2891 38.2803 18.2129 36.8154C18.1543 35.2393 18.1367 34.7529 18.1367 30.7627C18.1367 26.7666 18.1543 26.2803 18.2129 24.6865C18.2891 23.2217 18.5293 22.4189 18.7402 21.8916C19.0039 21.1768 19.3379 20.6904 19.8652 20.1631C20.3867 19.6416 20.8789 19.3018 21.5879 19.0381C22.1152 18.833 22.9004 18.5869 24.3652 18.5107C25.959 18.4521 26.4277 18.4346 30.4414 18.4346L30.5 18.4756ZM30.5 23.0693C26.2461 23.0693 22.7949 26.5205 22.7949 30.7744C22.7949 35.0283 26.2461 38.4795 30.5 38.4795C34.7539 38.4795 38.2051 35.0283 38.2051 30.7744C38.2051 26.5205 34.7539 23.0693 30.5 23.0693ZM30.5 35.7725C27.7402 35.7725 25.502 33.5342 25.502 30.7744C25.502 28.0146 27.7402 25.7764 30.5 25.7764C33.2598 25.7764 35.498 28.0146 35.498 30.7744C35.498 33.5342 33.2598 35.7725 30.5 35.7725ZM40.3086 22.7705C40.3086 23.7666 39.5 24.5693 38.5098 24.5693C37.5137 24.5693 36.7109 23.7607 36.7109 22.7705C36.7109 21.7803 37.5195 20.9717 38.5098 20.9717C39.5 20.9658 40.3086 21.7744 40.3086 22.7705Z" fill="white"/>
</svg>
