<svg width="61" height="61" viewBox="0 0 61 61" fill="none" xmlns="http://www.w3.org/2000/svg">
<path d="M30.5 60.7821C47.0685 60.7821 60.5 47.3506 60.5 30.7821C60.5 14.2136 47.0685 0.782104 30.5 0.782104C13.9315 0.782104 0.5 14.2136 0.5 30.7821C0.5 47.3506 13.9315 60.7821 30.5 60.7821Z" fill="#181717"/>
<path d="M30.4941 16.1454C22.2031 16.1454 15.4883 22.8661 15.4883 31.1512C15.4883 37.7841 19.7891 43.4091 25.748 45.3895C26.498 45.5301 26.7734 45.0673 26.7734 44.6688C26.7734 44.3114 26.7617 43.368 26.7559 42.12C22.584 43.0282 21.6992 40.1044 21.6992 40.1044C21.0137 38.37 20.0293 37.9071 20.0293 37.9071C18.6699 36.9755 20.1348 36.993 20.1348 36.993C21.6406 37.0985 22.4316 38.5399 22.4316 38.5399C23.7676 40.8368 25.9473 40.1747 26.8027 39.788C26.9375 38.8153 27.3242 38.1532 27.752 37.7782C24.418 37.4032 20.9141 36.1141 20.9141 30.3602C20.9141 28.7196 21.4941 27.3837 22.4609 26.3348C22.291 25.954 21.7871 24.4305 22.5898 22.3622C22.5898 22.3622 23.8496 21.9579 26.7148 23.9032C27.916 23.5692 29.1934 23.4052 30.4648 23.3993C31.7422 23.4052 33.0137 23.5692 34.2148 23.9032C37.0684 21.9637 38.3223 22.3622 38.3223 22.3622C39.1309 24.4305 38.6211 25.954 38.4746 26.3348C39.4297 27.3837 40.0156 28.7255 40.0156 30.3602C40.0156 36.1259 36.5059 37.3973 33.166 37.7665C33.6934 38.2177 34.1797 39.1376 34.1797 40.5438C34.1797 42.5536 34.1621 44.1649 34.1621 44.6512C34.1621 45.0438 34.4258 45.5126 35.1934 45.3661C41.2051 43.4032 45.5 37.7782 45.5 31.1512C45.5 22.8661 38.7793 16.1454 30.4941 16.1454Z" fill="white"/>
</svg>
