<svg width="61" height="61" viewBox="0 0 61 61" fill="none" xmlns="http://www.w3.org/2000/svg">
<path d="M30.5 60.7744C47.0685 60.7744 60.5 47.343 60.5 30.7744C60.5 14.2059 47.0685 0.774414 30.5 0.774414C13.9315 0.774414 0.5 14.2059 0.5 30.7744C0.5 47.343 13.9315 60.7744 30.5 60.7744Z" fill="#607D8B"/>
<path d="M40.9707 18.8096H20.0293C17.5508 18.8096 15.541 20.8193 15.541 23.2979V38.2568C15.541 40.7354 17.5508 42.7451 20.0293 42.7451H40.9707C43.4492 42.7451 45.459 40.7354 45.459 38.2568V23.292C45.459 20.8135 43.4492 18.8096 40.9707 18.8096ZM40.3613 21.7979L31.5605 30.5928C30.9805 31.1787 30.0313 31.1846 29.4453 30.5986L29.4395 30.5928L20.6387 21.7979H40.3613ZM42.4707 38.2568C42.4707 39.083 41.8027 39.751 40.9766 39.751H20.0293C19.2031 39.751 18.5352 39.083 18.5352 38.2568V23.9072L27.3301 32.7022C29.082 34.4541 31.918 34.4541 33.6758 32.7022L42.4707 23.9072V38.2568Z" fill="white"/>
</svg>
