<svg width="61" height="61" viewBox="0 0 61 61" fill="none" xmlns="http://www.w3.org/2000/svg">
<path d="M30.5 60.7821C47.0685 60.7821 60.5 47.3506 60.5 30.7821C60.5 14.2136 47.0685 0.782104 30.5 0.782104C13.9315 0.782104 0.5 14.2136 0.5 30.7821C0.5 47.3506 13.9315 60.7821 30.5 60.7821Z" fill="#E4405F"/>
<path d="M30.5 15.7821C26.4277 15.7821 25.918 15.7997 24.3184 15.87C22.7188 15.9462 21.6348 16.1981 20.6797 16.5673C19.6953 16.9481 18.8574 17.4637 18.0195 18.2958C17.1816 19.1278 16.6719 19.9657 16.291 20.9559C15.9219 21.911 15.6699 23.0009 15.5938 24.5946C15.5176 26.1942 15.5059 26.704 15.5059 30.7762C15.5059 34.8485 15.5234 35.3583 15.5938 36.9579C15.6699 38.5516 15.9219 39.6415 16.291 40.5966C16.6719 41.5809 17.1875 42.4188 18.0195 43.2567C18.8516 44.0887 19.6895 44.6044 20.6797 44.9852C21.6348 45.3544 22.7246 45.6063 24.3184 45.6825C25.918 45.7587 26.4277 45.7704 30.5 45.7704C34.5723 45.7704 35.082 45.7528 36.6816 45.6825C38.2754 45.6063 39.3652 45.3544 40.3203 44.9852C41.3047 44.6044 42.1426 44.0887 42.9805 43.2567C43.8125 42.4247 44.3281 41.5868 44.709 40.5966C45.0781 39.6415 45.3301 38.5516 45.4063 36.9579C45.4824 35.3583 45.4941 34.8485 45.4941 30.7762C45.4941 26.704 45.4766 26.1942 45.4063 24.5946C45.3301 23.0009 45.0781 21.911 44.709 20.9559C44.3281 19.9716 43.8125 19.1337 42.9805 18.2958C42.1484 17.4637 41.3105 16.9481 40.3203 16.5673C39.3652 16.1981 38.2754 15.9462 36.6816 15.87C35.082 15.7997 34.5723 15.7821 30.5 15.7821ZM30.5 18.4833C34.502 18.4833 34.9824 18.5009 36.5645 18.5712C38.0293 18.6415 38.8203 18.8817 39.3477 19.0927C40.0508 19.3622 40.5488 19.6903 41.0762 20.2118C41.5977 20.7391 41.9258 21.2372 42.1953 21.9403C42.4004 22.4677 42.6465 23.2587 42.7109 24.7235C42.7813 26.3055 42.7988 26.7801 42.7988 30.788C42.7988 34.7958 42.7813 35.2704 42.7051 36.8524C42.6289 38.3173 42.3828 39.1083 42.1777 39.6356C41.8965 40.3387 41.5801 40.8368 41.0527 41.3641C40.5312 41.8856 40.0215 42.2137 39.3301 42.4833C38.8027 42.6884 38 42.9344 36.5352 42.9989C34.9414 43.0692 34.4727 43.0868 30.459 43.0868C26.4453 43.0868 25.9766 43.0692 24.3828 42.993C22.918 42.9169 22.1152 42.6708 21.5879 42.4657C20.8789 42.1844 20.3867 41.868 19.8652 41.3407C19.3379 40.8192 19.0039 40.3094 18.7402 39.618C18.5352 39.0907 18.2891 38.288 18.2129 36.8231C18.1543 35.2469 18.1367 34.7606 18.1367 30.7704C18.1367 26.7743 18.1543 26.288 18.2129 24.6942C18.2891 23.2294 18.5293 22.4266 18.7402 21.8993C19.0039 21.1844 19.3379 20.6981 19.8652 20.1708C20.3867 19.6493 20.8789 19.3094 21.5879 19.0458C22.1152 18.8407 22.9004 18.5946 24.3652 18.5184C25.959 18.4598 26.4277 18.4423 30.4414 18.4423L30.5 18.4833ZM30.5 23.077C26.2461 23.077 22.7949 26.5282 22.7949 30.7821C22.7949 35.036 26.2461 38.4872 30.5 38.4872C34.7539 38.4872 38.2051 35.036 38.2051 30.7821C38.2051 26.5282 34.7539 23.077 30.5 23.077ZM30.5 35.7802C27.7402 35.7802 25.502 33.5419 25.502 30.7821C25.502 28.0223 27.7402 25.7841 30.5 25.7841C33.2598 25.7841 35.498 28.0223 35.498 30.7821C35.498 33.5419 33.2598 35.7802 30.5 35.7802ZM40.3086 22.7782C40.3086 23.7743 39.5 24.577 38.5098 24.577C37.5137 24.577 36.7109 23.7684 36.7109 22.7782C36.7109 21.788 37.5195 20.9794 38.5098 20.9794C39.5 20.9735 40.3086 21.7821 40.3086 22.7782Z" fill="white"/>
</svg>
