<svg width="61" height="61" viewBox="0 0 61 61" fill="none" xmlns="http://www.w3.org/2000/svg">
<path d="M30.5 60.8247C47.0685 60.8247 60.5 47.3932 60.5 30.8247C60.5 14.2561 47.0685 0.824677 30.5 0.824677C13.9315 0.824677 0.5 14.2561 0.5 30.8247C0.5 47.3932 13.9315 60.8247 30.5 60.8247Z" fill="#181717"/>
<path d="M30.4941 16.188C22.2031 16.188 15.4883 22.9087 15.4883 31.1938C15.4883 37.8266 19.7891 43.4516 25.748 45.4321C26.498 45.5727 26.7734 45.1098 26.7734 44.7114C26.7734 44.354 26.7617 43.4106 26.7559 42.1626C22.584 43.0708 21.6992 40.1469 21.6992 40.1469C21.0137 38.4126 20.0293 37.9497 20.0293 37.9497C18.6699 37.018 20.1348 37.0356 20.1348 37.0356C21.6406 37.1411 22.4316 38.5825 22.4316 38.5825C23.7676 40.8794 25.9473 40.2173 26.8027 39.8305C26.9375 38.8579 27.3242 38.1958 27.752 37.8208C24.418 37.4458 20.9141 36.1567 20.9141 30.4028C20.9141 28.7622 21.4941 27.4262 22.4609 26.3774C22.291 25.9966 21.7871 24.4731 22.5898 22.4048C22.5898 22.4048 23.8496 22.0005 26.7148 23.9458C27.916 23.6118 29.1934 23.4477 30.4648 23.4419C31.7422 23.4477 33.0137 23.6118 34.2148 23.9458C37.0684 22.0063 38.3223 22.4048 38.3223 22.4048C39.1309 24.4731 38.6211 25.9966 38.4746 26.3774C39.4297 27.4262 40.0156 28.768 40.0156 30.4028C40.0156 36.1684 36.5059 37.4399 33.166 37.8091C33.6934 38.2602 34.1797 39.1801 34.1797 40.5864C34.1797 42.5962 34.1621 44.2075 34.1621 44.6938C34.1621 45.0864 34.4258 45.5551 35.1934 45.4087C41.2051 43.4458 45.5 37.8208 45.5 31.1938C45.5 22.9087 38.7793 16.188 30.4941 16.188Z" fill="white"/>
</svg>
