<svg width="61" height="61" viewBox="0 0 61 61" fill="none" xmlns="http://www.w3.org/2000/svg">
<path d="M30.5 60.9933C47.0685 60.9933 60.5 47.5618 60.5 30.9933C60.5 14.4248 47.0685 0.993301 30.5 0.993301C13.9315 0.993301 0.5 14.4248 0.5 30.9933C0.5 47.5618 13.9315 60.9933 30.5 60.9933Z" fill="#3C5A99"/>
<path d="M32.832 45.9933V32.3292H37.4375L38.1289 26.9796H32.832V23.5753C32.832 22.0285 33.2598 20.9796 35.4746 20.9796H38.2812V16.2101C37.7949 16.1456 36.1191 15.9992 34.168 15.9992C30.0957 15.9992 27.3066 18.4835 27.3066 23.048V26.9855H22.7188V32.3351H27.3066V45.9933H32.832Z" fill="white"/>
</svg>
