<svg width="61" height="61" viewBox="0 0 61 61" fill="none" xmlns="http://www.w3.org/2000/svg">
<path d="M30.5 60.7821C47.0685 60.7821 60.5 47.3506 60.5 30.7821C60.5 14.2136 47.0685 0.782104 30.5 0.782104C13.9315 0.782104 0.5 14.2136 0.5 30.7821C0.5 47.3506 13.9315 60.7821 30.5 60.7821Z" fill="#3C5A99"/>
<path d="M32.832 45.7821V32.118H37.4375L38.1289 26.7684H32.832V23.3641C32.832 21.8173 33.2598 20.7684 35.4746 20.7684H38.2812V15.9989C37.7949 15.9344 36.1191 15.788 34.168 15.788C30.0957 15.788 27.3066 18.2723 27.3066 22.8368V26.7743H22.7188V32.1239H27.3066V45.7821H32.832Z" fill="white"/>
</svg>
