<svg width="61" height="61" viewBox="0 0 61 61" fill="none" xmlns="http://www.w3.org/2000/svg">
<path d="M30.5 60.7744C47.0685 60.7744 60.5 47.343 60.5 30.7744C60.5 14.2059 47.0685 0.774414 30.5 0.774414C13.9315 0.774414 0.5 14.2059 0.5 30.7744C0.5 47.343 13.9315 60.7744 30.5 60.7744Z" fill="#3C5A99"/>
<path d="M32.832 45.7744V32.1104H37.4375L38.1289 26.7607H32.832V23.3564C32.832 21.8096 33.2598 20.7607 35.4746 20.7607H38.2812V15.9912C37.7949 15.9268 36.1191 15.7803 34.168 15.7803C30.0957 15.7803 27.3066 18.2646 27.3066 22.8291V26.7666H22.7188V32.1162H27.3066V45.7744H32.832Z" fill="white"/>
</svg>
