<svg width="61" height="61" viewBox="0 0 61 61" fill="none" xmlns="http://www.w3.org/2000/svg">
<path d="M30.5 60.9933C47.0685 60.9933 60.5 47.5618 60.5 30.9933C60.5 14.4248 47.0685 0.993301 30.5 0.993301C13.9315 0.993301 0.5 14.4248 0.5 30.9933C0.5 47.5618 13.9315 60.9933 30.5 60.9933Z" fill="#607D8B"/>
<path d="M40.9707 19.0285H20.0293C17.5508 19.0285 15.541 21.0382 15.541 23.5167V38.4757C15.541 40.9542 17.5508 42.964 20.0293 42.964H40.9707C43.4492 42.964 45.459 40.9542 45.459 38.4757V23.5109C45.459 21.0324 43.4492 19.0285 40.9707 19.0285ZM40.3613 22.0167L31.5605 30.8117C30.9805 31.3976 30.0313 31.4035 29.4453 30.8175L29.4395 30.8117L20.6387 22.0167H40.3613ZM42.4707 38.4757C42.4707 39.3019 41.8027 39.9699 40.9766 39.9699H20.0293C19.2031 39.9699 18.5352 39.3019 18.5352 38.4757V24.1261L27.3301 32.921C29.082 34.673 31.918 34.673 33.6758 32.921L42.4707 24.1261V38.4757Z" fill="white"/>
</svg>
