<svg width="61" height="61" viewBox="0 0 61 61" fill="none" xmlns="http://www.w3.org/2000/svg">
<path d="M30.5 60.7744C47.0685 60.7744 60.5 47.343 60.5 30.7744C60.5 14.2059 47.0685 0.774414 30.5 0.774414C13.9315 0.774414 0.5 14.2059 0.5 30.7744C0.5 47.343 13.9315 60.7744 30.5 60.7744Z" fill="#181717"/>
<path d="M30.4941 16.1377C22.2031 16.1377 15.4883 22.8584 15.4883 31.1436C15.4883 37.7764 19.7891 43.4014 25.748 45.3818C26.498 45.5225 26.7734 45.0596 26.7734 44.6611C26.7734 44.3037 26.7617 43.3604 26.7559 42.1123C22.584 43.0205 21.6992 40.0967 21.6992 40.0967C21.0137 38.3623 20.0293 37.8994 20.0293 37.8994C18.6699 36.9678 20.1348 36.9854 20.1348 36.9854C21.6406 37.0908 22.4316 38.5322 22.4316 38.5322C23.7676 40.8291 25.9473 40.167 26.8027 39.7803C26.9375 38.8076 27.3242 38.1455 27.752 37.7705C24.418 37.3955 20.9141 36.1064 20.9141 30.3525C20.9141 28.7119 21.4941 27.376 22.4609 26.3271C22.291 25.9463 21.7871 24.4229 22.5898 22.3545C22.5898 22.3545 23.8496 21.9502 26.7148 23.8955C27.916 23.5615 29.1934 23.3975 30.4648 23.3916C31.7422 23.3975 33.0137 23.5615 34.2148 23.8955C37.0684 21.9561 38.3223 22.3545 38.3223 22.3545C39.1309 24.4229 38.6211 25.9463 38.4746 26.3271C39.4297 27.376 40.0156 28.7178 40.0156 30.3525C40.0156 36.1182 36.5059 37.3896 33.166 37.7588C33.6934 38.21 34.1797 39.1299 34.1797 40.5361C34.1797 42.5459 34.1621 44.1572 34.1621 44.6436C34.1621 45.0361 34.4258 45.5049 35.1934 45.3584C41.2051 43.3955 45.5 37.7705 45.5 31.1436C45.5 22.8584 38.7793 16.1377 30.4941 16.1377Z" fill="white"/>
</svg>
