<svg width="61" height="61" viewBox="0 0 61 61" fill="none" xmlns="http://www.w3.org/2000/svg">
<path d="M30.5 60.9933C47.0685 60.9933 60.5 47.5618 60.5 30.9933C60.5 14.4248 47.0685 0.993301 30.5 0.993301C13.9315 0.993301 0.5 14.4248 0.5 30.9933C0.5 47.5618 13.9315 60.9933 30.5 60.9933Z" fill="#E4405F"/>
<path d="M30.5 15.9933C26.4277 15.9933 25.918 16.0109 24.3184 16.0812C22.7188 16.1574 21.6348 16.4093 20.6797 16.7785C19.6953 17.1593 18.8574 17.6749 18.0195 18.507C17.1816 19.339 16.6719 20.1769 16.291 21.1671C15.9219 22.1222 15.6699 23.2121 15.5938 24.8058C15.5176 26.4054 15.5059 26.9152 15.5059 30.9874C15.5059 35.0597 15.5234 35.5695 15.5938 37.1691C15.6699 38.7628 15.9219 39.8527 16.291 40.8078C16.6719 41.7921 17.1875 42.63 18.0195 43.4679C18.8516 44.2999 19.6895 44.8156 20.6797 45.1964C21.6348 45.5656 22.7246 45.8175 24.3184 45.8937C25.918 45.9699 26.4277 45.9816 30.5 45.9816C34.5723 45.9816 35.082 45.964 36.6816 45.8937C38.2754 45.8175 39.3652 45.5656 40.3203 45.1964C41.3047 44.8156 42.1426 44.2999 42.9805 43.4679C43.8125 42.6359 44.3281 41.798 44.709 40.8078C45.0781 39.8527 45.3301 38.7628 45.4063 37.1691C45.4824 35.5695 45.4941 35.0597 45.4941 30.9874C45.4941 26.9152 45.4766 26.4054 45.4063 24.8058C45.3301 23.2121 45.0781 22.1222 44.709 21.1671C44.3281 20.1828 43.8125 19.3449 42.9805 18.507C42.1484 17.6749 41.3105 17.1593 40.3203 16.7785C39.3652 16.4093 38.2754 16.1574 36.6816 16.0812C35.082 16.0109 34.5723 15.9933 30.5 15.9933ZM30.5 18.6945C34.502 18.6945 34.9824 18.7121 36.5645 18.7824C38.0293 18.8527 38.8203 19.0929 39.3477 19.3038C40.0508 19.5734 40.5488 19.9015 41.0762 20.423C41.5977 20.9503 41.9258 21.4484 42.1953 22.1515C42.4004 22.6788 42.6465 23.4699 42.7109 24.9347C42.7813 26.5167 42.7988 26.9913 42.7988 30.9992C42.7988 35.007 42.7813 35.4816 42.7051 37.0636C42.6289 38.5285 42.3828 39.3195 42.1777 39.8468C41.8965 40.5499 41.5801 41.048 41.0527 41.5753C40.5312 42.0968 40.0215 42.4249 39.3301 42.6945C38.8027 42.8996 38 43.1456 36.5352 43.2101C34.9414 43.2804 34.4727 43.298 30.459 43.298C26.4453 43.298 25.9766 43.2804 24.3828 43.2042C22.918 43.1281 22.1152 42.882 21.5879 42.6769C20.8789 42.3956 20.3867 42.0792 19.8652 41.5519C19.3379 41.0304 19.0039 40.5206 18.7402 39.8292C18.5352 39.3019 18.2891 38.4992 18.2129 37.0343C18.1543 35.4581 18.1367 34.9718 18.1367 30.9816C18.1367 26.9855 18.1543 26.4992 18.2129 24.9054C18.2891 23.4406 18.5293 22.6378 18.7402 22.1105C19.0039 21.3956 19.3379 20.9093 19.8652 20.382C20.3867 19.8605 20.8789 19.5206 21.5879 19.257C22.1152 19.0519 22.9004 18.8058 24.3652 18.7296C25.959 18.671 26.4277 18.6535 30.4414 18.6535L30.5 18.6945ZM30.5 23.2882C26.2461 23.2882 22.7949 26.7394 22.7949 30.9933C22.7949 35.2472 26.2461 38.6984 30.5 38.6984C34.7539 38.6984 38.2051 35.2472 38.2051 30.9933C38.2051 26.7394 34.7539 23.2882 30.5 23.2882ZM30.5 35.9913C27.7402 35.9913 25.502 33.7531 25.502 30.9933C25.502 28.2335 27.7402 25.9953 30.5 25.9953C33.2598 25.9953 35.498 28.2335 35.498 30.9933C35.498 33.7531 33.2598 35.9913 30.5 35.9913ZM40.3086 22.9894C40.3086 23.9855 39.5 24.7882 38.5098 24.7882C37.5137 24.7882 36.7109 23.9796 36.7109 22.9894C36.7109 21.9992 37.5195 21.1906 38.5098 21.1906C39.5 21.1847 40.3086 21.9933 40.3086 22.9894Z" fill="white"/>
</svg>
