<svg width="61" height="61" viewBox="0 0 61 61" fill="none" xmlns="http://www.w3.org/2000/svg">
<path d="M30.5 60.9933C47.0685 60.9933 60.5 47.5618 60.5 30.9933C60.5 14.4248 47.0685 0.993301 30.5 0.993301C13.9315 0.993301 0.5 14.4248 0.5 30.9933C0.5 47.5618 13.9315 60.9933 30.5 60.9933Z" fill="#181717"/>
<path d="M30.4941 16.3566C22.2031 16.3566 15.4883 23.0773 15.4883 31.3624C15.4883 37.9953 19.7891 43.6203 25.748 45.6007C26.498 45.7413 26.7734 45.2785 26.7734 44.88C26.7734 44.5226 26.7617 43.5792 26.7559 42.3312C22.584 43.2394 21.6992 40.3156 21.6992 40.3156C21.0137 38.5812 20.0293 38.1183 20.0293 38.1183C18.6699 37.1867 20.1348 37.2042 20.1348 37.2042C21.6406 37.3097 22.4316 38.7511 22.4316 38.7511C23.7676 41.048 25.9473 40.3859 26.8027 39.9992C26.9375 39.0265 27.3242 38.3644 27.752 37.9894C24.418 37.6144 20.9141 36.3253 20.9141 30.5714C20.9141 28.9308 21.4941 27.5949 22.4609 26.546C22.291 26.1652 21.7871 24.6417 22.5898 22.5734C22.5898 22.5734 23.8496 22.1691 26.7148 24.1144C27.916 23.7804 29.1934 23.6163 30.4648 23.6105C31.7422 23.6163 33.0137 23.7804 34.2148 24.1144C37.0684 22.1749 38.3223 22.5734 38.3223 22.5734C39.1309 24.6417 38.6211 26.1652 38.4746 26.546C39.4297 27.5949 40.0156 28.9367 40.0156 30.5714C40.0156 36.3371 36.5059 37.6085 33.166 37.9777C33.6934 38.4288 34.1797 39.3488 34.1797 40.755C34.1797 42.7648 34.1621 44.3761 34.1621 44.8624C34.1621 45.255 34.4258 45.7238 35.1934 45.5773C41.2051 43.6144 45.5 37.9894 45.5 31.3624C45.5 23.0773 38.7793 16.3566 30.4941 16.3566Z" fill="white"/>
</svg>
