<svg width="61" height="61" viewBox="0 0 61 61" fill="none" xmlns="http://www.w3.org/2000/svg">
<path d="M30.5 60.8247C47.0685 60.8247 60.5 47.3932 60.5 30.8247C60.5 14.2561 47.0685 0.824677 30.5 0.824677C13.9315 0.824677 0.5 14.2561 0.5 30.8247C0.5 47.3932 13.9315 60.8247 30.5 60.8247Z" fill="#607D8B"/>
<path d="M40.9707 18.8598H20.0293C17.5508 18.8598 15.541 20.8696 15.541 23.3481V38.3071C15.541 40.7856 17.5508 42.7954 20.0293 42.7954H40.9707C43.4492 42.7954 45.459 40.7856 45.459 38.3071V23.3423C45.459 20.8637 43.4492 18.8598 40.9707 18.8598ZM40.3613 21.8481L31.5605 30.643C30.9805 31.229 30.0313 31.2348 29.4453 30.6489L29.4395 30.643L20.6387 21.8481H40.3613ZM42.4707 38.3071C42.4707 39.1333 41.8027 39.8012 40.9766 39.8012H20.0293C19.2031 39.8012 18.5352 39.1333 18.5352 38.3071V23.9575L27.3301 32.7524C29.082 34.5044 31.918 34.5044 33.6758 32.7524L42.4707 23.9575V38.3071Z" fill="white"/>
</svg>
