<svg width="61" height="61" viewBox="0 0 61 61" fill="none" xmlns="http://www.w3.org/2000/svg">
<path d="M30.5 60.8247C47.0685 60.8247 60.5 47.3932 60.5 30.8247C60.5 14.2561 47.0685 0.824677 30.5 0.824677C13.9315 0.824677 0.5 14.2561 0.5 30.8247C0.5 47.3932 13.9315 60.8247 30.5 60.8247Z" fill="#3C5A99"/>
<path d="M32.832 45.8247V32.1606H37.4375L38.1289 26.811H32.832V23.4067C32.832 21.8598 33.2598 20.811 35.4746 20.811H38.2812V16.0415C37.7949 15.977 36.1191 15.8305 34.168 15.8305C30.0957 15.8305 27.3066 18.3149 27.3066 22.8794V26.8169H22.7188V32.1665H27.3066V45.8247H32.832Z" fill="white"/>
</svg>
