<svg width="80" height="81" viewBox="0 0 80 81" fill="none" xmlns="http://www.w3.org/2000/svg">
<path fill-rule="evenodd" clip-rule="evenodd" d="M40 76.9339C19.7496 76.9339 3.33333 60.5177 3.33333 40.2673C3.33333 20.0168 19.7496 3.60059 40 3.60059C60.2504 3.60059 76.6667 20.0168 76.6667 40.2673C76.6667 60.5177 60.2504 76.9339 40 76.9339ZM40 70.2673C56.5685 70.2673 70 56.8358 70 40.2673C70 23.6987 56.5685 10.2673 40 10.2673C23.4315 10.2673 10 23.6987 10 40.2673C10 56.8358 23.4315 70.2673 40 70.2673ZM56.6667 36.9339H34.714L42.357 29.2909L37.643 24.5769L21.9526 40.2673L37.643 55.9576L42.357 51.2436L34.714 43.6006H56.6667V36.9339Z" fill="#CBF57E"/>
</svg>
