<svg width="80" height="81" viewBox="0 0 80 81" fill="none" xmlns="http://www.w3.org/2000/svg">
<path fill-rule="evenodd" clip-rule="evenodd" d="M40.0002 77.659C19.7497 77.659 3.3335 61.2428 3.3335 40.9924C3.3335 20.7419 19.7497 4.32568 40.0002 4.32568C60.2506 4.32568 76.6668 20.7419 76.6668 40.9924C76.6668 61.2428 60.2506 77.659 40.0002 77.659ZM40.0002 70.9923C56.5687 70.9923 70.0002 57.5609 70.0002 40.9924C70.0002 24.4238 56.5687 10.9924 40.0002 10.9924C23.4316 10.9924 10.0002 24.4238 10.0002 40.9924C10.0002 57.5609 23.4316 70.9923 40.0002 70.9923ZM56.6668 37.659H34.7142L42.3572 30.016L37.6431 25.302L21.9528 40.9924L37.6431 56.6827L42.3572 51.9687L34.7142 44.3257H56.6668V37.659Z" fill="#CBF57E"/>
</svg>
