<svg width="80" height="81" viewBox="0 0 80 81" fill="none" xmlns="http://www.w3.org/2000/svg">
<path fill-rule="evenodd" clip-rule="evenodd" d="M40.0002 76.9336C19.7497 76.9336 3.3335 60.5173 3.3335 40.2669C3.3335 20.0164 19.7497 3.60022 40.0002 3.60022C60.2506 3.60022 76.6668 20.0164 76.6668 40.2669C76.6668 60.5173 60.2506 76.9336 40.0002 76.9336ZM40.0002 70.2669C56.5687 70.2669 70.0002 56.8354 70.0002 40.2669C70.0002 23.6983 56.5687 10.2669 40.0002 10.2669C23.4316 10.2669 10.0002 23.6983 10.0002 40.2669C10.0002 56.8354 23.4316 70.2669 40.0002 70.2669ZM56.6668 36.9336H34.7142L42.3572 29.2906L37.6431 24.5765L21.9528 40.2669L37.6431 55.9572L42.3572 51.2432L34.7142 43.6002H56.6668V36.9336Z" fill="#CBF57E"/>
</svg>
