<svg width="80" height="81" viewBox="0 0 80 81" fill="none" xmlns="http://www.w3.org/2000/svg">
<path fill-rule="evenodd" clip-rule="evenodd" d="M39.9999 77.659C19.7495 77.659 3.33325 61.2428 3.33325 40.9924C3.33325 20.7419 19.7495 4.32568 39.9999 4.32568C60.2504 4.32568 76.6666 20.7419 76.6666 40.9924C76.6666 61.2428 60.2504 77.659 39.9999 77.659ZM39.9999 70.9923C56.5685 70.9923 69.9999 57.5609 69.9999 40.9923C69.9999 24.4238 56.5685 10.9924 39.9999 10.9924C23.4314 10.9924 9.99992 24.4238 9.99992 40.9923C9.99992 57.5609 23.4314 70.9923 39.9999 70.9923ZM56.6666 37.659H34.714L42.3569 30.016L37.6429 25.302L21.9525 40.9924L37.6429 56.6827L42.3569 51.9687L34.714 44.3257H56.6666V37.659Z" fill="#CBF57E"/>
</svg>
