<svg width="80" height="80" viewBox="0 0 80 80" fill="none" xmlns="http://www.w3.org/2000/svg">
<path fill-rule="evenodd" clip-rule="evenodd" d="M39.9999 76.6666C19.7495 76.6666 3.33325 60.2504 3.33325 39.9999C3.33325 19.7495 19.7495 3.33325 39.9999 3.33325C60.2504 3.33325 76.6666 19.7495 76.6666 39.9999C76.6666 60.2504 60.2504 76.6666 39.9999 76.6666ZM39.9999 69.9999C56.5685 69.9999 69.9999 56.5685 69.9999 39.9999C69.9999 23.4314 56.5685 9.99992 39.9999 9.99992C23.4314 9.99992 9.99992 23.4314 9.99992 39.9999C9.99992 56.5685 23.4314 69.9999 39.9999 69.9999ZM56.6666 36.6666H34.714L42.3569 29.0236L37.6429 24.3096L21.9525 39.9999L37.6429 55.6903L42.3569 50.9762L34.714 43.3333H56.6666V36.6666Z" fill="#468B06"/>
</svg>
