<svg width="80" height="80" viewBox="0 0 80 80" fill="none" xmlns="http://www.w3.org/2000/svg">
<path fill-rule="evenodd" clip-rule="evenodd" d="M40 76.6666C19.7496 76.6666 3.33337 60.2504 3.33337 39.9999C3.33337 19.7495 19.7496 3.33325 40 3.33325C60.2505 3.33325 76.6667 19.7495 76.6667 39.9999C76.6667 60.2504 60.2505 76.6666 40 76.6666ZM40 69.9999C56.5686 69.9999 70 56.5685 70 39.9999C70 23.4314 56.5686 9.99992 40 9.99992C23.4315 9.99992 10 23.4314 10 39.9999C10 56.5685 23.4315 69.9999 40 69.9999ZM56.6667 36.6666H34.7141L42.3571 29.0236L37.643 24.3096L21.9527 39.9999L37.643 55.6903L42.3571 50.9762L34.7141 43.3333H56.6667V36.6666Z" fill="#468B06"/>
</svg>
