<svg width="16" height="15" viewBox="0 0 16 15" fill="none" xmlns="http://www.w3.org/2000/svg">
<g clip-path="url(#clip0_337_117)">
<path d="M8 0C3.85742 0 0.5 3.35742 0.5 7.5C0.5 11.6426 3.85742 15 8 15C12.1426 15 15.5 11.6426 15.5 7.5C15.5 3.35742 12.1426 0 8 0ZM8 13.5938C4.63965 13.5938 1.90625 10.8601 1.90625 7.5C1.90625 4.13994 4.63965 1.40625 8 1.40625C11.3604 1.40625 14.0938 4.13994 14.0938 7.5C14.0938 10.8601 11.3604 13.5938 8 13.5938ZM7.97363 5.15625C8.59063 5.15625 9.17246 5.39977 9.60928 5.84121C9.88394 6.11496 10.3279 6.11953 10.6045 5.84579C10.8801 5.57204 10.8819 5.12713 10.6091 4.85057C9.90594 4.141 8.96991 3.75018 7.97381 3.75018C6.9786 3.75018 6.04169 4.141 5.33856 4.85057C3.89012 6.3119 3.89012 8.68846 5.33856 10.1504C6.04169 10.8599 6.9786 11.2508 7.97381 11.2508C8.96991 11.2508 9.90594 10.8599 10.6091 10.1504C10.8819 9.87387 10.8801 9.42909 10.6045 9.15516C10.328 8.88235 9.88408 8.88507 9.60928 9.15974C9.17246 9.60095 8.59063 9.8447 7.97363 9.8447C7.35576 9.8447 6.77393 9.60118 6.33623 9.15974C5.42979 8.24509 5.42979 6.75652 6.33623 5.8404C6.77539 5.39941 7.35547 5.15625 7.97363 5.15625Z" fill="#F3F4D3"/>
</g>
<defs>
<clipPath id="clip0_337_117">
<rect width="15" height="15" fill="white" transform="translate(0.5)"/>
</clipPath>
</defs>
</svg>
