<svg width="21" height="20" viewBox="0 0 21 20" fill="none" xmlns="http://www.w3.org/2000/svg">
<g clip-path="url(#clip0_337_95)">
<path d="M12.4527 14.0435C12.4527 14.0435 12.3599 12.7712 12.6639 12.5431C13.5765 11.8586 16.6015 12.2004 17.1921 13.1736C17.6882 13.991 17.3654 16.004 16.7175 16.5694C16.4456 16.8066 15.3082 16.8945 15.3082 16.8945C12.2321 16.8465 9.43765 15.651 7.33851 13.7194L6.75952 13.1437C4.81698 11.0564 3.61476 8.27771 3.56644 5.21892C3.56644 5.21892 3.65487 4.08783 3.89343 3.81752C4.46198 3.1733 6.48648 2.85224 7.30847 3.34552C8.28714 3.93287 8.63085 6.9408 7.94245 7.84822C7.71308 8.15056 6.43362 8.0583 6.43362 8.0583" stroke="black" stroke-width="16" stroke-miterlimit="10" stroke-linecap="round" stroke-linejoin="round"/>
<path d="M12.4578 14.0387C10.9109 13.5276 9.53862 12.6374 8.45198 11.4788L9.01276 12.0364C7.84753 10.956 6.95229 9.59135 6.43839 8.05322" stroke="black" stroke-width="16" stroke-miterlimit="10" stroke-linecap="round" stroke-linejoin="round"/>
<path d="M17.4593 13.0114C17.0764 12.3806 16.066 12.1023 15.4978 11.9924C14.4607 11.792 13.1242 11.8073 12.4764 12.2931C12.2631 12.4532 12.1569 12.7839 12.1321 13.3655C12.1288 13.4421 12.1274 13.5169 12.127 13.5878C11.0263 13.1627 10.0102 12.5285 9.14306 11.7252L8.76224 11.3466C7.95552 10.4855 7.31833 9.47655 6.89103 8.38386C6.96247 8.38351 7.0379 8.38206 7.11517 8.37882C7.69884 8.35417 8.03075 8.24874 8.19138 8.03702C8.6779 7.39573 8.69552 6.07159 8.49716 5.04382C8.3872 4.47386 8.10735 3.46058 7.46923 3.07761C6.83439 2.69659 5.85318 2.78851 5.46075 2.84577C4.65118 2.96378 3.97767 3.24984 3.65904 3.61085C3.38138 3.9255 3.28384 4.82343 3.25482 5.19484C3.25404 5.2046 3.25376 5.21464 3.25392 5.22445C3.30169 8.24972 4.46544 11.1386 6.53071 13.3578C6.53349 13.3607 6.5363 13.3649 6.53915 13.3677L7.11814 13.9459C7.12099 13.9487 7.12388 13.9565 7.12689 13.9591C9.35825 16.0123 12.262 17.1484 15.3033 17.2266C15.3049 17.2266 15.3066 17.2266 15.3082 17.2266C15.3162 17.2266 15.3243 17.2165 15.3323 17.2159C15.7054 17.187 16.6072 17.0804 16.923 16.8048C17.2863 16.4878 17.5742 15.8175 17.693 15.0116C17.7506 14.6209 17.8431 13.6438 17.4593 13.0114ZM17.0747 14.9204C16.9813 15.5537 16.7552 16.1217 16.5124 16.3336C16.4035 16.4234 15.8386 16.5386 15.2984 16.5818C12.4181 16.5333 9.66864 15.4369 7.55454 13.4935L6.98423 12.9263C5.03025 10.8246 3.92802 8.09183 3.87919 5.22866C3.92236 4.69292 4.0379 4.13238 4.12779 4.02425C4.34142 3.78222 4.91337 3.55714 5.55107 3.46417C6.21993 3.36663 6.83181 3.42382 7.14775 3.61347C7.45259 3.79644 7.73458 4.38988 7.88364 5.16226C8.07927 6.17593 8.00013 7.24132 7.70017 7.65054C7.57903 7.73562 7.02982 7.7812 6.51466 7.75038C6.45872 7.73628 6.39829 7.73722 6.3395 7.75683C6.28818 7.77398 6.24427 7.8032 6.20982 7.84023C6.16017 7.8912 6.12751 7.95925 6.12196 8.03581C6.1172 8.10179 6.13341 8.16437 6.16478 8.2173C6.59681 9.48027 7.28794 10.65 8.18689 11.6442C8.19751 11.6612 8.20993 11.6775 8.22415 11.6926C8.31677 11.7913 8.41142 11.8882 8.50786 11.983C8.60337 12.0791 8.70087 12.1734 8.80044 12.2656C8.81571 12.2798 8.832 12.2921 8.84903 12.3026C9.84864 13.1961 11.0246 13.8833 12.2941 14.3127C12.347 14.3439 12.4095 14.3601 12.4754 14.3551C12.5525 14.3495 12.6209 14.3163 12.6719 14.266C12.6772 14.261 12.6818 14.2557 12.6868 14.2504C12.6881 14.2489 12.6895 14.2473 12.6908 14.2458C12.7184 14.2148 12.7408 14.1786 12.7547 14.1368C12.7741 14.078 12.7749 14.0178 12.7606 13.962C12.7299 13.4511 12.7754 12.9068 12.8605 12.7866C13.2754 12.4858 14.3538 12.408 15.3793 12.6061C16.15 12.7551 16.7424 13.0346 16.9251 13.3357C17.1153 13.6491 17.1726 14.2563 17.0747 14.9204Z" fill="#F3F4D3"/>
</g>
<defs>
<clipPath id="clip0_337_95">
<rect width="20" height="20" fill="white" transform="translate(0.5)"/>
</clipPath>
</defs>
</svg>
