<svg width="23" height="23" viewBox="0 0 23 23" fill="none" xmlns="http://www.w3.org/2000/svg">
<path d="M11.5 11.5C12.4951 11.5 13.4678 11.2049 14.2952 10.6521C15.1226 10.0992 15.7675 9.31347 16.1483 8.39413C16.5291 7.47479 16.6287 6.46317 16.4346 5.4872C16.2404 4.51124 15.7613 3.61475 15.0576 2.91112C14.354 2.20749 13.4575 1.72831 12.4815 1.53417C11.5056 1.34004 10.494 1.43968 9.57462 1.82048C8.65528 2.20128 7.86951 2.84615 7.31667 3.67354C6.76383 4.50092 6.46875 5.47366 6.46875 6.46875C6.46875 7.80312 6.99883 9.08284 7.94237 10.0264C8.88591 10.9699 10.1656 11.5 11.5 11.5ZM11.5 2.875C12.2108 2.875 12.9056 3.08577 13.4966 3.48066C14.0876 3.87554 14.5482 4.43681 14.8202 5.09348C15.0922 5.75015 15.1634 6.47274 15.0247 7.16986C14.886 7.86698 14.5438 8.50732 14.0412 9.00992C13.5386 9.51251 12.8982 9.85478 12.2011 9.99345C11.504 10.1321 10.7814 10.0609 10.1247 9.78894C9.46806 9.51694 8.90679 9.05632 8.51191 8.46533C8.11702 7.87434 7.90625 7.17953 7.90625 6.46875C7.90625 5.51563 8.28488 4.60154 8.95884 3.92759C9.63279 3.25363 10.5469 2.875 11.5 2.875Z" fill="white"/>
<path d="M12.2188 12.9375H10.7812C8.68438 12.9375 6.6734 13.7705 5.19069 15.2532C3.70798 16.7359 2.875 18.7469 2.875 20.8438C2.875 21.0344 2.95073 21.2172 3.08552 21.352C3.22031 21.4868 3.40313 21.5625 3.59375 21.5625H19.4062C19.5969 21.5625 19.7797 21.4868 19.9145 21.352C20.0493 21.2172 20.125 21.0344 20.125 20.8438C20.125 18.7469 19.292 16.7359 17.8093 15.2532C16.3266 13.7705 14.3156 12.9375 12.2188 12.9375ZM4.35562 20.125C4.53236 18.5442 5.28534 17.084 6.47068 16.0233C7.65602 14.9625 9.19061 14.3758 10.7812 14.375H12.2188C13.8094 14.3758 15.344 14.9625 16.5293 16.0233C17.7147 17.084 18.4676 18.5442 18.6444 20.125H4.35562Z" fill="white"/>
</svg>
