<svg width="24" height="24" viewBox="0 0 24 24" fill="none" xmlns="http://www.w3.org/2000/svg">
<path d="M9.64 6.231C9.49393 6.10934 9.31621 6.03183 9.12767 6.00756C8.93913 5.98329 8.74757 6.01326 8.57545 6.09397C8.40334 6.17468 8.25779 6.30277 8.15587 6.46324C8.05395 6.62371 7.99988 6.8099 8 7V17C8.00013 17.19 8.05437 17.376 8.15638 17.5363C8.25839 17.6965 8.40394 17.8244 8.576 17.905C8.70854 17.9677 8.85337 18.0002 9 18C9.23378 18.0002 9.46023 17.9184 9.64 17.769L15.64 12.769C15.7529 12.6752 15.8437 12.5576 15.9061 12.4247C15.9684 12.2918 16.0008 12.1468 16.0008 12C16.0008 11.8532 15.9684 11.7082 15.9061 11.5753C15.8437 11.4424 15.7529 11.3248 15.64 11.231L9.64 6.231ZM10 14.865V9.135L13.438 12L10 14.865Z" fill="#F0F1EF"/>
</svg>
