<svg width="40" height="40" viewBox="0 0 40 40" fill="none" xmlns="http://www.w3.org/2000/svg">
<g clip-path="url(#clip0_337_108)">
<path d="M20 0C8.9543 0 0 8.9543 0 20C0 31.0457 8.9543 40 20 40C31.0457 40 40 31.0457 40 20C40 8.9543 31.0457 0 20 0ZM25.2805 11.9866C25.2805 11.9866 23.2341 11.8253 22.4279 12.123C21.0954 12.6152 21.0637 13.7662 21.0637 14.8639V17.1056H25.1378L24.5425 21.3937H21.0637V31.9791H16.4621V21.3937H12.6363V17.1056H16.4623V13.4687C16.4623 9.61781 19.4266 8.22258 21.1938 8.05516C22.9611 7.88773 25.2805 8.39 25.2805 8.39V11.9866Z" fill="#F3F4D3"/>
</g>
<defs>
<clipPath id="clip0_337_108">
<rect width="40" height="40" fill="white"/>
</clipPath>
</defs>
</svg>
