<svg width="42" height="42" viewBox="0 0 42 42" fill="none" xmlns="http://www.w3.org/2000/svg">
<g clip-path="url(#clip0_337_112)">
<path d="M21 0C9.40201 0 0 9.40201 0 21C0 32.598 9.40201 42 21 42C32.598 42 42 32.598 42 21C42 9.40201 32.598 0 21 0ZM30.1805 16.2952C30.2051 17.8612 29.9978 25.6915 22.5661 29.0846C15.1343 32.4776 9.51562 28.2494 9.51562 28.2494C13.6726 28.6409 16.3993 26.2918 16.3993 26.2918C13.0322 26.1483 12.0534 23.0162 12.0534 23.0162C13.2541 23.225 14.0849 22.89 14.0849 22.89C10.3265 21.881 10.4222 18.2267 10.4222 18.2267C11.4923 18.8618 12.4319 18.7487 12.4319 18.7487C8.95182 16.243 11.0817 12.5106 11.0817 12.5106C14.9968 17.3393 20.8614 17.474 20.8614 17.474C20.7783 17.0866 20.7372 16.6914 20.739 16.2952C20.739 13.1631 23.4987 11.5971 25.4372 11.5971C27.3756 11.5971 28.8102 13.0587 28.8102 13.0587C30.285 12.9931 31.8641 11.9885 31.8641 11.9885C31.2376 13.894 29.9199 14.5987 29.9199 14.5987C31.114 14.4682 32.4848 13.8678 32.4848 13.8678C32.0216 14.8858 30.1805 16.2952 30.1805 16.2952Z" fill="#F3F4D3"/>
</g>
<defs>
<clipPath id="clip0_337_112">
<rect width="42" height="42" fill="white"/>
</clipPath>
</defs>
</svg>
