<svg width="22" height="21" viewBox="0 0 22 21" fill="none" xmlns="http://www.w3.org/2000/svg">
<g clip-path="url(#clip0_337_171)">
<path d="M21.5 5.25C21.5 4.32731 20.872 3.5385 19.9736 3.33113L11.4338 1.36041C11.2907 1.32825 11.145 1.3125 11 1.3125C10.855 1.3125 10.7093 1.32825 10.557 1.36237L2.02644 3.33113C1.12737 3.5385 0.5 4.32731 0.5 5.25C0.5 6.17269 1.12803 6.9615 2.02578 7.16887L3.78125 7.57378V13.125C3.78125 14.8667 5.77494 16.4062 11 16.4062C16.2251 16.4062 18.2188 14.8667 18.2188 13.125V7.57378L19.9736 7.16887C20.872 6.9615 21.5 6.17269 21.5 5.25ZM16.9062 13.125C16.9062 13.8502 14.9375 15.0938 11 15.0938C7.0625 15.0938 5.09375 13.8502 5.09375 13.125V7.87697L10.5656 9.13959C10.7086 9.17175 10.855 9.1875 11 9.1875C11.145 9.1875 11.2914 9.17175 11.4423 9.13762L16.9062 7.87697V13.125ZM11.1477 7.85859C11.0984 7.86909 11.0492 7.875 11 7.875C10.9508 7.875 10.9009 7.86909 10.8523 7.85859L2.32109 5.88984C2.02316 5.82094 1.8125 5.55581 1.8125 5.25C1.8125 4.94419 2.02316 4.67906 2.32109 4.61016L10.8523 2.64141C10.9009 2.63091 10.9501 2.625 11 2.625C11.0499 2.625 11.0991 2.63091 11.1477 2.64141L19.6789 4.61016C19.9762 4.67906 20.1875 4.94419 20.1875 5.25C20.1875 5.55581 19.9762 5.82094 19.6789 5.88984L11.1477 7.85859Z" fill="white"/>
<path d="M19.5312 8.53125V14.4375C19.5312 14.8004 19.8246 15.0938 20.1875 15.0938C20.5497 15.0938 20.8438 14.8004 20.8438 14.4375V8.53125C20.8438 8.16834 20.5497 7.875 20.1875 7.875C19.8246 7.875 19.5312 8.16834 19.5312 8.53125Z" fill="white"/>
<path d="M20.1875 15.75C19.4623 15.75 18.875 17.6505 18.875 18.375C18.875 19.0995 19.4623 19.6875 20.1875 19.6875C20.912 19.6875 21.5 19.0995 21.5 18.375C21.5 17.6505 20.912 15.75 20.1875 15.75Z" fill="white"/>
</g>
<defs>
<clipPath id="clip0_337_171">
<rect width="21" height="21" fill="white" transform="translate(0.5)"/>
</clipPath>
</defs>
</svg>
