<svg width="21" height="21" viewBox="0 0 21 21" fill="none" xmlns="http://www.w3.org/2000/svg">
<path d="M21 5.25C21 4.32731 20.372 3.5385 19.4736 3.33113L10.9338 1.36041C10.7907 1.32825 10.645 1.3125 10.5 1.3125C10.355 1.3125 10.2093 1.32825 10.057 1.36237L1.52644 3.33113C0.627375 3.5385 0 4.32731 0 5.25C0 6.17269 0.628031 6.9615 1.52578 7.16887L3.28125 7.57378V13.125C3.28125 14.8667 5.27494 16.4062 10.5 16.4062C15.7251 16.4062 17.7188 14.8667 17.7188 13.125V7.57378L19.4736 7.16887C20.372 6.9615 21 6.17269 21 5.25ZM16.4062 13.125C16.4062 13.8502 14.4375 15.0938 10.5 15.0938C6.5625 15.0938 4.59375 13.8502 4.59375 13.125V7.87697L10.0656 9.13959C10.2086 9.17175 10.355 9.1875 10.5 9.1875C10.645 9.1875 10.7914 9.17175 10.9423 9.13762L16.4062 7.87697V13.125ZM10.6477 7.85859C10.5984 7.86909 10.5492 7.875 10.5 7.875C10.4508 7.875 10.4009 7.86909 10.3523 7.85859L1.82109 5.88984C1.52316 5.82094 1.3125 5.55581 1.3125 5.25C1.3125 4.94419 1.52316 4.67906 1.82109 4.61016L10.3523 2.64141C10.4009 2.63091 10.4501 2.625 10.5 2.625C10.5499 2.625 10.5991 2.63091 10.6477 2.64141L19.1789 4.61016C19.4762 4.67906 19.6875 4.94419 19.6875 5.25C19.6875 5.55581 19.4762 5.82094 19.1789 5.88984L10.6477 7.85859Z" fill="black"/>
<path d="M19.0312 8.53125V14.4375C19.0312 14.8004 19.3246 15.0938 19.6875 15.0938C20.0497 15.0938 20.3438 14.8004 20.3438 14.4375V8.53125C20.3438 8.16834 20.0497 7.875 19.6875 7.875C19.3246 7.875 19.0312 8.16834 19.0312 8.53125Z" fill="black"/>
<path d="M19.6875 15.75C18.9623 15.75 18.375 17.6505 18.375 18.375C18.375 19.0995 18.9623 19.6875 19.6875 19.6875C20.412 19.6875 21 19.0995 21 18.375C21 17.6505 20.412 15.75 19.6875 15.75Z" fill="black"/>
</svg>
