<svg width="20" height="20" viewBox="0 0 20 20" fill="none" xmlns="http://www.w3.org/2000/svg">
<path fill-rule="evenodd" clip-rule="evenodd" d="M10.0013 11.0913C12.0694 11.0913 13.7513 9.40881 13.7513 7.34131C13.7513 5.27381 12.0694 3.59131 10.0013 3.59131C7.93313 3.59131 6.25125 5.27318 6.25125 7.34131C6.25125 9.40943 7.93313 11.0913 10.0013 11.0913ZM10.0013 4.21631C11.725 4.21631 13.1263 5.61756 13.1263 7.34131C13.1263 9.06506 11.725 10.4663 10.0013 10.4663C8.2775 10.4663 6.87625 9.06506 6.87625 7.34131C6.87625 5.61756 8.2775 4.21631 10.0013 4.21631Z" fill="#F3F4D3"/>
<path fill-rule="evenodd" clip-rule="evenodd" d="M10 0C5.86375 0 2.5 3.3225 2.5 7.50063C2.5 11.8756 6.25063 16.3512 8.985 19.4969C8.995 19.5094 9.43375 20 9.97625 20C9.9775 20 10.0219 20 10.0244 20C10.5662 20 11.0056 19.5094 11.0156 19.4969C13.7512 16.3512 17.5013 11.8763 17.5013 7.50063C17.5013 3.3225 14.1369 0 10 0ZM10.0731 18.6769C10.06 18.6894 10.0219 18.7169 9.98875 18.7381C9.9825 18.7213 9.93625 18.6844 9.90812 18.655C7.6175 16.0194 3.75 11.5713 3.75 7.50063C3.75 4.05438 6.55437 1.25 10 1.25C13.4475 1.25 16.2513 4.05437 16.2513 7.50125C16.2513 11.5712 12.3838 16.0194 10.0731 18.6769Z" fill="#F3F4D3"/>
</svg>
